<?xml version="1.0" encoding="UTF-8" standalone="no"?>
<!-- Created with Inkscape (http://www.inkscape.org/) -->

<svg
   xmlns:dc="http://purl.org/dc/elements/1.1/"
   xmlns:cc="http://creativecommons.org/ns#"
   xmlns:rdf="http://www.w3.org/1999/02/22-rdf-syntax-ns#"
   xmlns:svg="http://www.w3.org/2000/svg"
   xmlns="http://www.w3.org/2000/svg"
   xmlns:sodipodi="http://sodipodi.sourceforge.net/DTD/sodipodi-0.dtd"
   xmlns:inkscape="http://www.inkscape.org/namespaces/inkscape"
   id="svg2"
   version="1.1"
   inkscape:version="0.91 r13725"
   xml:space="preserve"
   width="213.3875"
   height="211.52499"
   viewBox="0 0 213.3875 211.52499"
   sodipodi:docname="logo.svg"><metadata
     id="metadata8"><rdf:RDF><cc:Work
         rdf:about=""><dc:format>image/svg+xml</dc:format><dc:type
           rdf:resource="http://purl.org/dc/dcmitype/StillImage" /><dc:title /></cc:Work></rdf:RDF></metadata><defs
     id="defs6" /><sodipodi:namedview
     pagecolor="#ffffff"
     bordercolor="#666666"
     borderopacity="1"
     objecttolerance="10"
     gridtolerance="10"
     guidetolerance="10"
     inkscape:pageopacity="0"
     inkscape:pageshadow="2"
     inkscape:window-width="1280"
     inkscape:window-height="1024"
     id="namedview4"
     showgrid="false"
     inkscape:zoom="2.8170914"
     inkscape:cx="106.1088"
     inkscape:cy="147.06297"
     inkscape:window-x="0"
     inkscape:window-y="0"
     inkscape:window-maximized="0"
     inkscape:current-layer="g10" /><g
     id="g10"
     inkscape:groupmode="layer"
     inkscape:label="ink_ext_XXXXXX"
     transform="matrix(1.25,0,0,-1.25,0,211.525)"><path
       inkscape:connector-curvature="0"
       id="path14"
       style="fill:#ffffff;fill-opacity:1;fill-rule:nonzero;stroke:none"
       d="m 169.948,97.8598 -58.466,24.0212 c 0,0 -1.046,0.43 -0.989,1.559 l 1.157,22.73 c 0,0 0.058,1.13 1.189,1.13 l 36.524,0 c 0,0 1.131,0 0.102,0.47 l -46.632,21.29 c 0,0 -1.028,0.47 -1.952,-0.183 L 71.3004,147.954 c 0,0 -0.9234,-0.654 0.2078,-0.654 l 20.4606,0 c 0,0 1.1308,0 1.2382,-1.126 l 1.5684,-16.404 c 0,0 0.1074,-1.126 -0.9356,-0.69 L 65.059,141.101 c 0,0 -1.0438,0.437 -1.5531,-0.573 L 28.9949,71.9305 c 0,0 -0.5078,-1.0098 0.4821,-1.5567 L 104.264,29.057 c 0,0 0.99,-0.5461 1.052,0.5828 0.002,0.0211 0.092,1.6692 4.114,74.5772 0,0 0.063,1.129 1.088,0.651 14.94,-6.9731 18.608,-22.3633 19.181,-31.7539 0.893,-14.627 -7.953,-47.502 -28.413,-54.8629 0,0 -1.063,-0.3832 -2.1844,-0.2352 -44.2465,5.9031 -84.7465,31.893 -79.5633,61.0356 6.1859,34.7774 24.9207,82.9204 24.9207,82.9204 0,0 0.4101,1.055 -0.7207,1.055 l -42.60744,0 c 0,0 -1.13086,0 -1.13086,-1.132 L 0,48.7469 c 0,0 0,-1.1309 0.933203,-1.7719 C 23.5641,31.4559 55.768,11.85 77.2758,0.408984 c 0,0 0.998,-0.530859 2.1203,-0.3828121 C 140.598,8.08281 166.753,83.6316 170.662,96.348 c 0,0 0.332,1.0813 -0.714,1.5118 M 96.4148,90.643 C 96.1328,77.4031 91.702,52.7551 81.6879,55.5828 70.4273,58.7629 52.8223,67.798 46.7031,85.9523 c 0,0 -0.3609,1.0715 0.1528,2.0801 10.0906,19.8016 31.7461,25.8066 41.1492,24.7476 5.7586,-0.648 8.6707,-9.924 8.4097,-22.137 m 8.9012,-61.0032 0,0 c 0,-0.0019 0,0 0,0 M 74.0313,101.957 c 9.0328,0 16.4003,-7.3668 16.4003,-16.4 0,-9.0328 -7.3675,-16.4 -16.4003,-16.4 -9.034,0 -16.4024,7.3672 -16.4024,16.4 0,9.0332 7.3684,16.4 16.4024,16.4" /></g></svg>