<?xml version="1.0" encoding="UTF-8" standalone="no"?>
<svg
   xmlns:dc="http://purl.org/dc/elements/1.1/"
   xmlns:cc="http://creativecommons.org/ns#"
   xmlns:rdf="http://www.w3.org/1999/02/22-rdf-syntax-ns#"
   xmlns:svg="http://www.w3.org/2000/svg"
   xmlns="http://www.w3.org/2000/svg"
   xmlns:sodipodi="http://sodipodi.sourceforge.net/DTD/sodipodi-0.dtd"
   xmlns:inkscape="http://www.inkscape.org/namespaces/inkscape"
   id="svg4264"
   xml:space="preserve"
   viewBox="0 0 355.99719 104.258"
   height="104.258"
   width="355.99719"
   y="0px"
   x="0px"
   version="1.1"
   inkscape:version="0.91 r13725"
   sodipodi:docname="wortmarke_goldbach_clean.svg"><sodipodi:namedview
     pagecolor="#ffffff"
     bordercolor="#666666"
     borderopacity="1"
     objecttolerance="10"
     gridtolerance="10"
     guidetolerance="10"
     inkscape:pageopacity="0"
     inkscape:pageshadow="2"
     inkscape:window-width="1256"
     inkscape:window-height="484"
     id="namedview45"
     showgrid="false"
     inkscape:zoom="1.5612395"
     inkscape:cx="166.78955"
     inkscape:cy="52.129002"
     inkscape:window-x="10"
     inkscape:window-y="28"
     inkscape:window-maximized="0"
     inkscape:current-layer="svg4264" /><metadata
     id="metadata4352"><rdf:RDF><cc:Work
         rdf:about=""><dc:format>image/svg+xml</dc:format><dc:type
           rdf:resource="http://purl.org/dc/dcmitype/StillImage" /><dc:title /></cc:Work></rdf:RDF></metadata><defs
     id="defs4350" /><g
     transform="translate(-155,-15.742)"
     id="g4394"
     style="fill:#ffffff"><path
       style="fill:#ffffff"
       id="path4270"
       d="m 287.888,96.09 c -23.664,0 -36.51,-16.452 -36.51,-40.907 0,-22.312 11.606,-39.441 36.173,-39.441 7.438,0 15.212,1.804 21.974,5.296 l -7.437,14.764 c -3.493,-2.254 -8.903,-3.719 -13.974,-3.719 -14.087,0 -17.917,9.579 -17.917,23.101 0,21.298 8.112,25.356 18.142,25.356 1.916,0 3.719,0 5.635,-0.339 0,-1.015 0,-6.311 0.226,-17.355 -6.536,0.112 -7.776,0.112 -8.903,0.112 0,-0.335 -0.225,-14.199 -0.225,-14.422 l 26.031,0 0,42.71 c -5.635,3.603 -15.327,4.844 -23.215,4.844 M 226.306,120 c 12.057,-7.55 16.678,-13.187 16.678,-28.174 l 0,-47.033 -1.127,-1.126 -17.692,0.112 c 0.114,2.254 0.338,6.691 0.338,9.845 l 0,40.229 c 0,9.017 -1.127,10.707 -6.874,14.765 l 0,1.576 8.677,9.806 z M 155,17.695 l 18.367,0 c 0,1.238 0,17.128 -0.338,34.256 l 0.564,0 c 1.353,-3.156 3.268,-6.535 4.732,-8.562 l 18.368,-25.693 21.186,0 -25.693,33.579 c 7.101,12.51 17.242,29.188 25.693,43.726 l -21.186,0 c -3.943,-8.115 -12.509,-22.764 -17.129,-31.893 -2.14,2.592 -4.395,4.96 -6.536,7.55 0.227,12.51 0.338,23.329 0.338,24.343 l -18.366,0 0,-77.306 z m 78.694,19.78 c 5.501,0 9.963,-4.46 9.963,-9.963 0,-5.502 -4.462,-9.961 -9.963,-9.961 -5.503,0 -9.964,4.459 -9.964,9.961 0,5.503 4.461,9.963 9.964,9.963" /><g
       style="fill:#ffffff"
       id="g4272"
       transform="translate(332,12)"><g
         id="g4274"
         transform="matrix(0.0268,0,0,0.0268,-0.268,24.12)"
         style="fill:#ffffff"><path
           id="path4276"
           d="m 70,0 0,685 142,0 c 0,-12 0,-169 -2,-310 l 3,0 c 13,26 32,55 44,71 L 444,685 611,685 369,389 C 426,293 531,129 611,0 L 445,0 C 413,58 313,221 272,297 252,274 230,252 210,228 211,123 212,9 212,0 L 70,0 Z"
           transform="scale(1,-1)"
           style="fill:#ffffff" /><path
           id="path4278"
           d="m 448,0 -112,0 -10,10 -12,38 -4,1 C 267,10 219,-13 160,-13 53,-13 34,79 34,133 34,287 166,296 304,304 l 0,31 c 0,44 -29,55 -64,55 -62,0 -119,-20 -153,-33 l -31,80 0,12 c 91,33 170,40 225,40 99,0 164,-41 164,-148 l 0,-226 c 0,-39 2,-95 3,-115 z m -142,228 -1,1 c -94,-2 -135,-3 -135,-78 0,-35 9,-68 47,-68 24,0 57,13 87,44 0,6 2,95 2,101 z"
           transform="matrix(1,0,0,-1,623,0)"
           style="fill:#ffffff" /><path
           id="path4280"
           d="M 294,0 211,0 C 86,0 77,72 77,142 c 0,10 0,140 2,234 -31,-1 -51,-1 -61,-1 l 1,101 c 10,0 29,0 60,-1 -1,55 -2,126 -2,135 l 10,10 132,0 c 0,-9 0,-69 -2,-145 35,1 82,1 92,1 l -2,-101 c -10,0 -55,0 -90,1 1,-91 1,-208 1,-217 0,-50 1,-60 45,-60 l 39,0 2,-89 z"
           transform="matrix(1,0,0,-1,1121,0)"
           style="fill:#ffffff" /><path
           id="path4282"
           d="M 466,0 324,0 c 0,9 4,306 4,315 0,51 -12,69 -46,69 -25,0 -61,-16 -88,-34 L 195,0 53,0 53,582 c 0,40 -1,100 -3,121 l 135,4 10,-10 0,-115 c 0,-9 -1,-140 -1,-150 45,32 104,56 157,56 67,0 118,-40 118,-142 0,-10 -3,-336 -3,-346 z"
           transform="matrix(1,0,0,-1,1459,0)"
           style="fill:#ffffff" /><path
           id="path4284"
           d="M 262,-13 C 83,-13 31,127 31,240 31,380 97,489 262,489 425,489 493,380 493,240 493,127 438,-13 262,-13 Z m 0,87 c 58,0 84,60 84,164 0,79 -14,153 -84,153 -71,0 -84,-74 -84,-153 0,-104 25,-164 84,-164 z"
           transform="matrix(1,0,0,-1,1984,0)"
           style="fill:#ffffff" /><path
           id="path4286"
           d="m 195,697 0,-582 c 0,-38 2,-95 4,-115 L 57,0 c -2,20 -4,77 -4,115 l 0,473 c 0,38 -1,95 -3,115 l 135,4 z"
           transform="matrix(1,0,0,-1,2508,0)"
           style="fill:#ffffff" /><path
           id="path4288"
           d="M 203,0 61,0 61,361 c 0,29 -2,95 -3,115 l 135,2 10,-10 0,-468 z m 0,554 -142,0 0,130 10,10 132,0 0,-140 z"
           transform="matrix(1,0,0,-1,2762,0)"
           style="fill:#ffffff" /><path
           id="path4290"
           d="m 23,58 42,75 c 32,-29 78,-55 122,-55 32,0 68,14 68,52 0,42 -49,49 -104,73 -62,27 -114,60 -114,139 0,103 83,147 186,147 56,0 116,-13 159,-41 l 0,-12 -40,-79 c -28,21 -66,35 -108,35 -37,0 -60,-15 -60,-44 0,-38 44,-46 99,-67 C 349,252 395,220 395,139 395,33 312,-13 202,-13 132,-13 76,6 23,46 l 0,12 z"
           transform="matrix(1,0,0,-1,3023,0)"
           style="fill:#ffffff" /><path
           id="path4292"
           d="M 410,47 C 366,9 320,-13 248,-13 95,-13 34,92 34,242 c 0,144 72,247 228,247 56,0 111,-17 146,-41 l 0,-12 -40,-79 c -28,20 -59,32 -89,32 -68,0 -96,-62 -96,-148 0,-93 23,-160 87,-160 37,0 69,23 93,49 l 47,-71 0,-12 z"
           transform="matrix(1,0,0,-1,3448,0)"
           style="fill:#ffffff" /><path
           id="path4294"
           d="M 466,0 324,0 c 0,9 4,306 4,315 0,51 -12,69 -46,69 -25,0 -61,-16 -88,-34 L 195,0 53,0 53,582 c 0,40 -1,100 -3,121 l 135,4 10,-10 0,-115 c 0,-9 -1,-140 -1,-150 45,32 104,56 157,56 67,0 118,-40 118,-142 0,-10 -3,-336 -3,-346 z"
           transform="matrix(1,0,0,-1,3877,0)"
           style="fill:#ffffff" /><path
           id="path4296"
           d="M 439,57 C 391,15 335,-13 261,-13 98,-13 32,100 32,241 c 0,139 61,248 222,248 155,0 210,-100 210,-230 0,-15 -4,-42 -10,-58 -38,0 -271,2 -281,2 1,-53 24,-123 104,-123 41,0 75,21 105,53 l 57,-64 0,-12 z M 329,277 c 0,75 -22,114 -75,114 -49,0 -77,-38 -80,-117 11,0 150,3 155,3 z"
           transform="matrix(1,0,0,-1,4402,0)"
           style="fill:#ffffff" /></g></g><g
       style="fill:#ffffff"
       id="g4298"
       transform="translate(332,38)"><g
         id="g4300"
         transform="matrix(0.0268,0,0,0.0268,-0.268,24.12)"
         style="fill:#ffffff"><path
           id="path4302"
           d="m 62,-221 -66,76 0,14 c 56,39 67,55 67,135 l 0,357 c 0,28 -2,95 -3,115 l 135,2 10,-10 0,-450 c 0,-127 -38,-175 -143,-239 z m 143,775 -142,0 0,130 10,10 132,0 0,-140 z"
           transform="scale(1,-1)"
           style="fill:#ffffff" /><path
           id="path4304"
           d="m 477,0 -112,0 -10,10 -12,40 -4,1 C 286,1 231,-13 176,-13 103,-13 50,27 50,129 c 0,10 3,337 3,347 l 132,0 10,-10 c 0,-11 -3,-298 -3,-311 0,-36 12,-70 48,-70 30,0 70,20 94,45 l -2,346 132,0 10,-10 0,-351 c 0,-39 2,-95 3,-115 z"
           transform="matrix(1,0,0,-1,263,0)"
           style="fill:#ffffff" /><path
           id="path4306"
           d="M 468,0 326,0 c 0,9 4,306 4,315 0,51 -12,69 -46,69 -25,0 -61,-16 -88,-34 L 197,0 55,0 55,353 c 0,35 -2,102 -3,123 l 118,3 11,-10 7,-39 2,-1 c 45,33 110,59 163,59 67,0 118,-40 118,-142 0,-10 -3,-336 -3,-346 z"
           transform="matrix(1,0,0,-1,792,0)"
           style="fill:#ffffff" /><path
           id="path4308"
           d="m 481,476 c -1,-10 -3,-61 -3,-91 l 0,-405 c 0,-138 -104,-196 -218,-196 -64,0 -133,17 -187,49 l 36,89 12,0 c 36,-24 81,-40 124,-40 59,0 92,30 92,82 0,8 3,54 5,82 l -4,2 C 304,17 263,-12 207,-12 70,-12 37,113 37,241 c 0,125 51,248 173,248 54,0 97,-24 133,-57 l 3,2 10,35 11,10 z M 336,135 c 0,10 2,199 2,210 -22,25 -52,40 -79,40 -67,0 -75,-90 -75,-144 0,-59 3,-158 66,-158 28,0 63,23 86,52 z"
           transform="matrix(1,0,0,-1,1319,0)"
           style="fill:#ffffff" /><path
           id="path4310"
           d="M 439,57 C 391,15 335,-13 261,-13 98,-13 32,100 32,241 c 0,139 61,248 222,248 155,0 210,-100 210,-230 0,-15 -4,-42 -10,-58 -38,0 -271,2 -281,2 1,-53 24,-123 104,-123 41,0 75,21 105,53 l 57,-64 0,-12 z M 329,277 c 0,75 -22,114 -75,114 -49,0 -77,-38 -80,-117 11,0 150,3 155,3 z"
           transform="matrix(1,0,0,-1,1852,0)"
           style="fill:#ffffff" /><path
           id="path4312"
           d="M 561,30 C 513,1 432,-9 363,-9 150,-9 36,136 36,352 c 0,197 102,350 317,350 66,0 133,-16 193,-47 L 489,541 c -34,21 -87,34 -135,34 -132,0 -172,-95 -172,-223 0,-183 72,-242 185,-242 21,0 41,1 60,6 0,9 0,70 2,178 -65,-1 -78,-1 -88,-1 0,2 -1,112 -1,113 l 221,0 0,-376 z"
           transform="matrix(1,0,0,-1,2556,0)"
           style="fill:#ffffff" /><path
           id="path4314"
           d="M 439,57 C 391,15 335,-13 261,-13 98,-13 32,100 32,241 c 0,139 61,248 222,248 155,0 210,-100 210,-230 0,-15 -4,-42 -10,-58 -38,0 -271,2 -281,2 1,-53 24,-123 104,-123 41,0 75,21 105,53 l 57,-64 0,-12 z M 329,277 c 0,75 -22,114 -75,114 -49,0 -77,-38 -80,-117 11,0 150,3 155,3 z"
           transform="matrix(1,0,0,-1,3182,0)"
           style="fill:#ffffff" /><path
           id="path4316"
           d="M 717,0 575,0 c 0,9 4,306 4,315 0,50 -13,69 -44,69 -23,0 -55,-13 -80,-33 L 455,0 317,0 c 0,9 2,306 2,315 0,50 -12,69 -41,69 -24,0 -57,-14 -82,-34 L 197,0 55,0 55,353 c 0,34 -2,102 -3,123 l 118,3 11,-10 7,-39 2,-1 c 43,35 103,59 154,59 40,0 78,-18 97,-61 49,38 112,61 163,61 65,0 116,-40 116,-142 0,-10 -3,-336 -3,-346 z"
           transform="matrix(1,0,0,-1,3636,0)"
           style="fill:#ffffff" /><path
           id="path4318"
           d="M 439,57 C 391,15 335,-13 261,-13 98,-13 32,100 32,241 c 0,139 61,248 222,248 155,0 210,-100 210,-230 0,-15 -4,-42 -10,-58 -38,0 -271,2 -281,2 1,-53 24,-123 104,-123 41,0 75,21 105,53 l 57,-64 0,-12 z M 329,277 c 0,75 -22,114 -75,114 -49,0 -77,-38 -80,-117 11,0 150,3 155,3 z"
           transform="matrix(1,0,0,-1,4412,0)"
           style="fill:#ffffff" /><path
           id="path4320"
           d="M 203,0 61,0 61,361 c 0,29 -2,95 -3,115 l 135,2 10,-10 0,-468 z m 0,554 -142,0 0,130 10,10 132,0 0,-140 z"
           transform="matrix(1,0,0,-1,4906,0)"
           style="fill:#ffffff" /><path
           id="path4322"
           d="M 468,0 326,0 c 0,9 4,306 4,315 0,51 -12,69 -46,69 -25,0 -61,-16 -88,-34 L 197,0 55,0 55,353 c 0,35 -2,102 -3,123 l 118,3 11,-10 7,-39 2,-1 c 45,33 110,59 163,59 67,0 118,-40 118,-142 0,-10 -3,-336 -3,-346 z"
           transform="matrix(1,0,0,-1,5167,0)"
           style="fill:#ffffff" /><path
           id="path4324"
           d="m 481,0 -112,0 -10,10 -13,38 -4,1 C 305,18 263,-12 207,-12 70,-12 37,113 37,241 c 0,125 51,248 173,248 54,0 97,-24 126,-51 l 2,1 c -1,39 -2,139 -2,149 0,38 -2,95 -4,115 l 136,4 10,-10 0,-582 c 0,-39 2,-95 3,-115 z M 336,135 c 0,10 2,199 2,210 -22,25 -52,40 -79,40 -67,0 -75,-90 -75,-144 0,-59 3,-158 66,-158 28,0 63,23 86,52 z"
           transform="matrix(1,0,0,-1,5694,0)"
           style="fill:#ffffff" /><path
           id="path4326"
           d="M 439,57 C 391,15 335,-13 261,-13 98,-13 32,100 32,241 c 0,139 61,248 222,248 155,0 210,-100 210,-230 0,-15 -4,-42 -10,-58 -38,0 -271,2 -281,2 1,-53 24,-123 104,-123 41,0 75,21 105,53 l 57,-64 0,-12 z M 329,277 c 0,75 -22,114 -75,114 -49,0 -77,-38 -80,-117 11,0 150,3 155,3 z"
           transform="matrix(1,0,0,-1,6225,0)"
           style="fill:#ffffff" /></g></g><g
       style="fill:#ffffff"
       id="g4328"
       transform="translate(332,70)"><g
         id="g4330"
         transform="matrix(0.0268,0,0,0.0268,-0.268,24.12)"
         style="fill:#ffffff"><path
           id="path4332"
           d="M 561,30 C 513,1 432,-9 363,-9 150,-9 36,136 36,352 c 0,197 102,350 317,350 66,0 133,-16 193,-47 L 489,541 c -34,21 -87,34 -135,34 -132,0 -172,-95 -172,-223 0,-183 72,-242 185,-242 21,0 41,1 60,6 0,9 0,70 2,178 -65,-1 -78,-1 -88,-1 0,2 -1,112 -1,113 l 221,0 0,-376 z"
           transform="scale(1,-1)"
           style="fill:#ffffff" /><path
           id="path4334"
           d="M 262,-13 C 83,-13 31,127 31,240 31,380 97,489 262,489 425,489 493,380 493,240 493,127 438,-13 262,-13 Z m 0,87 c 58,0 84,60 84,164 0,79 -14,153 -84,153 -71,0 -84,-74 -84,-153 0,-104 25,-164 84,-164 z"
           transform="matrix(1,0,0,-1,626,0)"
           style="fill:#ffffff" /><path
           id="path4336"
           d="m 195,697 0,-582 c 0,-38 2,-95 4,-115 L 57,0 c -2,20 -4,77 -4,115 l 0,473 c 0,38 -1,95 -3,115 l 135,4 z"
           transform="matrix(1,0,0,-1,1150,0)"
           style="fill:#ffffff" /><path
           id="path4338"
           d="m 481,0 -112,0 -10,10 -13,38 -4,1 C 305,18 263,-12 207,-12 70,-12 37,113 37,241 c 0,125 51,248 173,248 54,0 97,-24 126,-51 l 2,1 c -1,39 -2,139 -2,149 0,38 -2,95 -4,115 l 136,4 10,-10 0,-582 c 0,-39 2,-95 3,-115 z M 336,135 c 0,10 2,199 2,210 -22,25 -52,40 -79,40 -67,0 -75,-90 -75,-144 0,-59 3,-158 66,-158 28,0 63,23 86,52 z"
           transform="matrix(1,0,0,-1,1404,0)"
           style="fill:#ffffff" /><path
           id="path4340"
           d="M 162,0 50,0 c 1,20 3,77 3,115 l 0,473 c 0,38 -1,95 -3,115 l 135,4 10,-10 c 0,-24 0,-191 -2,-258 l 2,-1 c 32,25 72,51 130,51 130,0 169,-109 169,-232 0,-130 -32,-269 -172,-269 -50,0 -96,26 -134,59 l -4,-1 -12,-36 z m 33,136 c 23,-30 58,-53 85,-53 65,0 67,97 67,161 0,62 -5,141 -71,141 -27,0 -61,-16 -83,-40 0,-20 2,-200 2,-209 z"
           transform="matrix(1,0,0,-1,1935,0)"
           style="fill:#ffffff" /><path
           id="path4342"
           d="m 448,0 -112,0 -10,10 -12,38 -4,1 C 267,10 219,-13 160,-13 53,-13 34,79 34,133 34,287 166,296 304,304 l 0,31 c 0,44 -29,55 -64,55 -62,0 -119,-20 -153,-33 l -31,80 0,12 c 91,33 170,40 225,40 99,0 164,-41 164,-148 l 0,-226 c 0,-39 2,-95 3,-115 z m -142,228 -1,1 c -94,-2 -135,-3 -135,-78 0,-35 9,-68 47,-68 24,0 57,13 87,44 0,6 2,95 2,101 z"
           transform="matrix(1,0,0,-1,2466,0)"
           style="fill:#ffffff" /><path
           id="path4344"
           d="M 410,47 C 366,9 320,-13 248,-13 95,-13 34,92 34,242 c 0,144 72,247 228,247 56,0 111,-17 146,-41 l 0,-12 -40,-79 c -28,20 -59,32 -89,32 -68,0 -96,-62 -96,-148 0,-93 23,-160 87,-160 37,0 69,23 93,49 l 47,-71 0,-12 z"
           transform="matrix(1,0,0,-1,2964,0)"
           style="fill:#ffffff" /><path
           id="path4346"
           d="M 466,0 324,0 c 0,9 4,306 4,315 0,51 -12,69 -46,69 -25,0 -61,-16 -88,-34 L 195,0 53,0 53,582 c 0,40 -1,100 -3,121 l 135,4 10,-10 0,-115 c 0,-9 -1,-140 -1,-150 45,32 104,56 157,56 67,0 118,-40 118,-142 0,-10 -3,-336 -3,-346 z"
           transform="matrix(1,0,0,-1,3393,0)"
           style="fill:#ffffff" /></g></g></g></svg>